<?xml version="1.0" encoding="UTF-8"?>
<svg width="55px" height="40px" viewBox="0 0 55 40" version="1.1" xmlns="http://www.w3.org/2000/svg" xmlns:xlink="http://www.w3.org/1999/xlink">
    <!-- Generator: Sketch 55.1 (78136) - https://sketchapp.com -->
    <title>VC symbol</title>
    <desc>Created with Sketch.</desc>
    <g id="Page-1" stroke="none" stroke-width="1" fill="none" fill-rule="evenodd">
        <g id="VC-symbol" fill-rule="nonzero">
            <polygon id="Path" fill="#0584B5" points="0 8 0 24 14 32 14 16"></polygon>
            <g id="Group">
                <polygon id="Path" fill="#09AEEF" points="13.7757009 0.0458781362 0.0342679128 8.01146953 13.7757009 15.9770609 27.517134 8.01146953"></polygon>
                <polygon id="Path" fill="#AED13B" points="41.258567 0.0458781362 27.517134 8.01146953 41.258567 15.9770609 55 8.01146953"></polygon>
            </g>
            <g id="Group" transform="translate(13.000000, 8.000000)">
                <polygon id="Path" fill="#B9880C" points="13.9883817 0.0402154399 13.9883817 16 27.9651452 23.9798923 27.9651452 8.02010772"></polygon>
                <polygon id="Path" fill="#B76800" points="0.0116182573 8.02010772 0.0116182573 23.9798923 13.9883817 16 13.9883817 0.0402154399"></polygon>
                <polygon id="Path" fill="#FDB715" points="13.9883817 16 0.0116182573 23.9798923 13.9883817 31.9597846 27.9651452 23.9798923"></polygon>
            </g>
            <polygon id="Path" fill="#7F9E2E" points="41 16 41 32 55 24 55 8"></polygon>
        </g>
    </g>
</svg>